<mxfile host="app.diagrams.net" modified="2023-11-16T20:56:24.098Z" agent="Mozilla/5.0 (Windows NT 10.0; Win64; x64) AppleWebKit/537.36 (KHTML, like Gecko) Chrome/116.0.0.0 Safari/537.36" version="22.1.2" etag="yKtIotFqyDCLHYJSNBpq" type="device">
  <diagram id="LJ9bGbLNomOWMZSpoc2y" name="Trang-1">
    <mxGraphModel dx="1006" dy="559" grid="1" gridSize="10" guides="1" tooltips="1" connect="1" arrows="1" fold="1" page="1" pageScale="1" pageWidth="827" pageHeight="1169" math="0" shadow="0">
      <root>
        <mxCell id="0" />
        <mxCell id="1" parent="0" />
        <mxCell id="E2zNDdp6CAtTn_-VoZr9-1" value="Start" style="ellipse;whiteSpace=wrap;html=1;" vertex="1" parent="1">
          <mxGeometry x="270" y="20" width="120" height="80" as="geometry" />
        </mxCell>
        <mxCell id="E2zNDdp6CAtTn_-VoZr9-2" value="" style="edgeStyle=orthogonalEdgeStyle;rounded=0;orthogonalLoop=1;jettySize=auto;html=1;" edge="1" parent="1" target="E2zNDdp6CAtTn_-VoZr9-4">
          <mxGeometry relative="1" as="geometry">
            <mxPoint x="330" y="100" as="sourcePoint" />
          </mxGeometry>
        </mxCell>
        <mxCell id="E2zNDdp6CAtTn_-VoZr9-3" value="" style="edgeStyle=orthogonalEdgeStyle;rounded=0;orthogonalLoop=1;jettySize=auto;html=1;" edge="1" parent="1" source="E2zNDdp6CAtTn_-VoZr9-4" target="E2zNDdp6CAtTn_-VoZr9-6">
          <mxGeometry relative="1" as="geometry" />
        </mxCell>
        <mxCell id="E2zNDdp6CAtTn_-VoZr9-4" value="numbers[] = {2,4,6,8,10}" style="whiteSpace=wrap;html=1;" vertex="1" parent="1">
          <mxGeometry x="255" y="160" width="150" height="60" as="geometry" />
        </mxCell>
        <mxCell id="E2zNDdp6CAtTn_-VoZr9-5" value="" style="edgeStyle=orthogonalEdgeStyle;rounded=0;orthogonalLoop=1;jettySize=auto;html=1;" edge="1" parent="1" source="E2zNDdp6CAtTn_-VoZr9-6" target="E2zNDdp6CAtTn_-VoZr9-8">
          <mxGeometry relative="1" as="geometry" />
        </mxCell>
        <mxCell id="E2zNDdp6CAtTn_-VoZr9-6" value="searchValue" style="whiteSpace=wrap;html=1;" vertex="1" parent="1">
          <mxGeometry x="270" y="270" width="120" height="60" as="geometry" />
        </mxCell>
        <mxCell id="E2zNDdp6CAtTn_-VoZr9-7" value="" style="edgeStyle=orthogonalEdgeStyle;rounded=0;orthogonalLoop=1;jettySize=auto;html=1;" edge="1" parent="1" source="E2zNDdp6CAtTn_-VoZr9-8" target="E2zNDdp6CAtTn_-VoZr9-10">
          <mxGeometry relative="1" as="geometry" />
        </mxCell>
        <mxCell id="E2zNDdp6CAtTn_-VoZr9-8" value="printf&amp;nbsp;searchValue" style="shape=parallelogram;perimeter=parallelogramPerimeter;whiteSpace=wrap;html=1;fixedSize=1;" vertex="1" parent="1">
          <mxGeometry x="270" y="380" width="120" height="60" as="geometry" />
        </mxCell>
        <mxCell id="E2zNDdp6CAtTn_-VoZr9-9" value="" style="edgeStyle=orthogonalEdgeStyle;rounded=0;orthogonalLoop=1;jettySize=auto;html=1;" edge="1" parent="1" source="E2zNDdp6CAtTn_-VoZr9-10" target="E2zNDdp6CAtTn_-VoZr9-11">
          <mxGeometry relative="1" as="geometry" />
        </mxCell>
        <mxCell id="E2zNDdp6CAtTn_-VoZr9-10" value="start = 0" style="whiteSpace=wrap;html=1;" vertex="1" parent="1">
          <mxGeometry x="270" y="480" width="120" height="60" as="geometry" />
        </mxCell>
        <mxCell id="E2zNDdp6CAtTn_-VoZr9-13" value="" style="edgeStyle=orthogonalEdgeStyle;rounded=0;orthogonalLoop=1;jettySize=auto;html=1;" edge="1" parent="1" source="E2zNDdp6CAtTn_-VoZr9-11" target="E2zNDdp6CAtTn_-VoZr9-12">
          <mxGeometry relative="1" as="geometry" />
        </mxCell>
        <mxCell id="E2zNDdp6CAtTn_-VoZr9-11" value="end = sizeof (numbers)/sizeof(int)" style="whiteSpace=wrap;html=1;" vertex="1" parent="1">
          <mxGeometry x="236.25" y="570" width="187.5" height="60" as="geometry" />
        </mxCell>
        <mxCell id="E2zNDdp6CAtTn_-VoZr9-15" value="" style="edgeStyle=orthogonalEdgeStyle;rounded=0;orthogonalLoop=1;jettySize=auto;html=1;" edge="1" parent="1" source="E2zNDdp6CAtTn_-VoZr9-12" target="E2zNDdp6CAtTn_-VoZr9-14">
          <mxGeometry relative="1" as="geometry" />
        </mxCell>
        <mxCell id="E2zNDdp6CAtTn_-VoZr9-12" value="mid" style="whiteSpace=wrap;html=1;" vertex="1" parent="1">
          <mxGeometry x="270" y="660" width="120" height="60" as="geometry" />
        </mxCell>
        <mxCell id="E2zNDdp6CAtTn_-VoZr9-17" value="True" style="edgeStyle=orthogonalEdgeStyle;rounded=0;orthogonalLoop=1;jettySize=auto;html=1;" edge="1" parent="1" source="E2zNDdp6CAtTn_-VoZr9-14" target="E2zNDdp6CAtTn_-VoZr9-16">
          <mxGeometry relative="1" as="geometry" />
        </mxCell>
        <mxCell id="E2zNDdp6CAtTn_-VoZr9-32" value="False" style="edgeStyle=orthogonalEdgeStyle;rounded=0;orthogonalLoop=1;jettySize=auto;html=1;" edge="1" parent="1" source="E2zNDdp6CAtTn_-VoZr9-14" target="E2zNDdp6CAtTn_-VoZr9-31">
          <mxGeometry relative="1" as="geometry" />
        </mxCell>
        <mxCell id="E2zNDdp6CAtTn_-VoZr9-14" value="start&lt;=end" style="rhombus;whiteSpace=wrap;html=1;" vertex="1" parent="1">
          <mxGeometry x="290" y="770" width="80" height="80" as="geometry" />
        </mxCell>
        <mxCell id="E2zNDdp6CAtTn_-VoZr9-19" value="" style="edgeStyle=orthogonalEdgeStyle;rounded=0;orthogonalLoop=1;jettySize=auto;html=1;" edge="1" parent="1" source="E2zNDdp6CAtTn_-VoZr9-16" target="E2zNDdp6CAtTn_-VoZr9-18">
          <mxGeometry relative="1" as="geometry" />
        </mxCell>
        <mxCell id="E2zNDdp6CAtTn_-VoZr9-16" value="mid = (start+end)/2" style="whiteSpace=wrap;html=1;" vertex="1" parent="1">
          <mxGeometry x="430" y="780" width="120" height="60" as="geometry" />
        </mxCell>
        <mxCell id="E2zNDdp6CAtTn_-VoZr9-21" value="true" style="edgeStyle=orthogonalEdgeStyle;rounded=0;orthogonalLoop=1;jettySize=auto;html=1;" edge="1" parent="1" source="E2zNDdp6CAtTn_-VoZr9-18" target="E2zNDdp6CAtTn_-VoZr9-20">
          <mxGeometry relative="1" as="geometry" />
        </mxCell>
        <mxCell id="E2zNDdp6CAtTn_-VoZr9-23" value="False" style="edgeStyle=orthogonalEdgeStyle;rounded=0;orthogonalLoop=1;jettySize=auto;html=1;" edge="1" parent="1" source="E2zNDdp6CAtTn_-VoZr9-18" target="E2zNDdp6CAtTn_-VoZr9-22">
          <mxGeometry relative="1" as="geometry" />
        </mxCell>
        <mxCell id="E2zNDdp6CAtTn_-VoZr9-18" value="numbers [mid] == searchValue" style="rhombus;whiteSpace=wrap;html=1;" vertex="1" parent="1">
          <mxGeometry x="630" y="770" width="150" height="80" as="geometry" />
        </mxCell>
        <mxCell id="E2zNDdp6CAtTn_-VoZr9-20" value="break" style="whiteSpace=wrap;html=1;" vertex="1" parent="1">
          <mxGeometry x="875" y="780" width="120" height="60" as="geometry" />
        </mxCell>
        <mxCell id="E2zNDdp6CAtTn_-VoZr9-25" value="True" style="edgeStyle=orthogonalEdgeStyle;rounded=0;orthogonalLoop=1;jettySize=auto;html=1;" edge="1" parent="1" source="E2zNDdp6CAtTn_-VoZr9-22" target="E2zNDdp6CAtTn_-VoZr9-24">
          <mxGeometry relative="1" as="geometry" />
        </mxCell>
        <mxCell id="E2zNDdp6CAtTn_-VoZr9-29" value="False" style="edgeStyle=orthogonalEdgeStyle;rounded=0;orthogonalLoop=1;jettySize=auto;html=1;" edge="1" parent="1" source="E2zNDdp6CAtTn_-VoZr9-22" target="E2zNDdp6CAtTn_-VoZr9-28">
          <mxGeometry relative="1" as="geometry" />
        </mxCell>
        <mxCell id="E2zNDdp6CAtTn_-VoZr9-22" value="numbers [mid]&amp;lt;searchValue" style="rhombus;whiteSpace=wrap;html=1;" vertex="1" parent="1">
          <mxGeometry x="616.25" y="910" width="177.5" height="80" as="geometry" />
        </mxCell>
        <mxCell id="E2zNDdp6CAtTn_-VoZr9-24" value="start = mid+1" style="rhombus;whiteSpace=wrap;html=1;" vertex="1" parent="1">
          <mxGeometry x="890" y="910" width="100" height="80" as="geometry" />
        </mxCell>
        <mxCell id="E2zNDdp6CAtTn_-VoZr9-28" value="end = mid-1" style="rounded=0;whiteSpace=wrap;html=1;" vertex="1" parent="1">
          <mxGeometry x="645" y="1050" width="120" height="60" as="geometry" />
        </mxCell>
        <mxCell id="E2zNDdp6CAtTn_-VoZr9-36" value="True" style="edgeStyle=orthogonalEdgeStyle;rounded=0;orthogonalLoop=1;jettySize=auto;html=1;" edge="1" parent="1" source="E2zNDdp6CAtTn_-VoZr9-31" target="E2zNDdp6CAtTn_-VoZr9-35">
          <mxGeometry relative="1" as="geometry" />
        </mxCell>
        <mxCell id="E2zNDdp6CAtTn_-VoZr9-38" value="False" style="edgeStyle=orthogonalEdgeStyle;rounded=0;orthogonalLoop=1;jettySize=auto;html=1;" edge="1" parent="1" source="E2zNDdp6CAtTn_-VoZr9-31" target="E2zNDdp6CAtTn_-VoZr9-37">
          <mxGeometry relative="1" as="geometry" />
        </mxCell>
        <mxCell id="E2zNDdp6CAtTn_-VoZr9-31" value="numbers [mid] == searchValue" style="rhombus;whiteSpace=wrap;html=1;" vertex="1" parent="1">
          <mxGeometry x="250" y="930" width="160" height="80" as="geometry" />
        </mxCell>
        <mxCell id="E2zNDdp6CAtTn_-VoZr9-41" value="" style="edgeStyle=orthogonalEdgeStyle;rounded=0;orthogonalLoop=1;jettySize=auto;html=1;" edge="1" parent="1" source="E2zNDdp6CAtTn_-VoZr9-35" target="E2zNDdp6CAtTn_-VoZr9-39">
          <mxGeometry relative="1" as="geometry" />
        </mxCell>
        <mxCell id="E2zNDdp6CAtTn_-VoZr9-35" value="printf&amp;nbsp;numbers[mid]" style="shape=parallelogram;perimeter=parallelogramPerimeter;whiteSpace=wrap;html=1;fixedSize=1;" vertex="1" parent="1">
          <mxGeometry x="470" y="940" width="130" height="60" as="geometry" />
        </mxCell>
        <mxCell id="E2zNDdp6CAtTn_-VoZr9-40" value="" style="edgeStyle=orthogonalEdgeStyle;rounded=0;orthogonalLoop=1;jettySize=auto;html=1;" edge="1" parent="1" source="E2zNDdp6CAtTn_-VoZr9-37" target="E2zNDdp6CAtTn_-VoZr9-39">
          <mxGeometry relative="1" as="geometry" />
        </mxCell>
        <mxCell id="E2zNDdp6CAtTn_-VoZr9-37" value="searchValue" style="shape=parallelogram;perimeter=parallelogramPerimeter;whiteSpace=wrap;html=1;fixedSize=1;" vertex="1" parent="1">
          <mxGeometry x="270" y="1070" width="120" height="60" as="geometry" />
        </mxCell>
        <mxCell id="E2zNDdp6CAtTn_-VoZr9-39" value="End" style="ellipse;whiteSpace=wrap;html=1;" vertex="1" parent="1">
          <mxGeometry x="470" y="1060" width="120" height="80" as="geometry" />
        </mxCell>
      </root>
    </mxGraphModel>
  </diagram>
</mxfile>
